<svg width="24" height="24" viewBox="0 0 24 24" fill="none" xmlns="http://www.w3.org/2000/svg">
<g id="Group 51">
<g id="Group 50">
<rect id="Rectangle 48" x="3.75" y="8.25" width="16.5" height="12" rx="1.25" stroke="white" stroke-width="1.5"/>
<path id="Vector 2" d="M6.75 11.4375C6.75 11.8517 7.08579 12.1875 7.5 12.1875C7.91421 12.1875 8.25 11.8517 8.25 11.4375H6.75ZM15.75 11.4375C15.75 11.8517 16.0858 12.1875 16.5 12.1875C16.9142 12.1875 17.25 11.8517 17.25 11.4375H15.75ZM8.25 11.4375V7.5H6.75V11.4375H8.25ZM15.75 7.5V11.4375H17.25V7.5H15.75ZM12 3.75C14.0711 3.75 15.75 5.42893 15.75 7.5H17.25C17.25 4.60051 14.8995 2.25 12 2.25V3.75ZM8.25 7.5C8.25 5.42893 9.92893 3.75 12 3.75V2.25C9.10051 2.25 6.75 4.60051 6.75 7.5H8.25Z" fill="white"/>
</g>
</g>
</svg>
