<svg width="15" height="15" viewBox="0 0 15 15" fill="none" xmlns="http://www.w3.org/2000/svg">
<path d="M1.70642 3.41283C2.64884 3.41283 3.41283 2.64884 3.41283 1.70642C3.41283 0.763988 2.64884 0 1.70642 0C0.763988 0 0 0.763988 0 1.70642C0 2.64884 0.763988 3.41283 1.70642 3.41283Z" fill="white"/>
<path d="M5.02405 4.70614V14.1733H7.96348V9.49159C7.96348 8.25623 8.19589 7.05987 9.72761 7.05987C11.2383 7.05987 11.257 8.47226 11.257 9.56958V14.1741H14.198V8.98232C14.198 6.43205 13.6489 4.47217 10.6682 4.47217C9.23706 4.47217 8.27778 5.25753 7.88549 6.00077H7.84572V4.70614H5.02405ZM0.233917 4.70614H3.17803V14.1733H0.233917V4.70614Z" fill="white"/>
</svg>
