<svg width="15" height="12" viewBox="0 0 15 12" fill="none" xmlns="http://www.w3.org/2000/svg">
<path d="M13.4589 2.9906C13.4689 3.12217 13.4689 3.25298 13.4689 3.38379C13.4689 7.38704 10.3753 12 4.72166 12C2.97985 12 1.36169 11.5031 0 10.64C0.247303 10.6678 0.485447 10.6776 0.742673 10.6776C2.17993 10.6776 3.5027 10.1995 4.55984 9.38379C3.20807 9.35597 2.07536 8.4839 1.68456 7.28405C1.87462 7.31187 2.06544 7.33066 2.26542 7.33066C2.54096 7.33066 2.81803 7.29307 3.07526 7.22767C1.66548 6.9465 0.609862 5.72785 0.609862 4.25586V4.21827C1.01974 4.44305 1.49527 4.58364 1.99903 4.60243C1.17087 4.05964 0.62818 3.13119 0.62818 2.08094C0.62818 1.51861 0.780073 1.00288 1.04646 0.553314C2.56004 2.38993 4.83539 3.59053 7.38627 3.72209C7.33895 3.49655 7.30994 3.26275 7.30994 3.02819C7.30994 1.35923 8.68079 0 10.3844 0C11.2698 0 12.069 0.365368 12.6308 0.956271C13.3254 0.824709 13.9909 0.571357 14.5817 0.224784C14.3535 0.927703 13.8673 1.51861 13.23 1.89375C13.849 1.82759 14.4489 1.65919 15 1.42463C14.5817 2.02456 14.0589 2.55908 13.4589 2.9906Z" fill="white"/>
</svg>
