<svg width="16" height="17" viewBox="0 0 16 17" fill="none" xmlns="http://www.w3.org/2000/svg">
<path d="M15.5764 2.76805C15.1599 1.6944 14.3118 0.845421 13.2382 0.430701C12.6174 0.197144 11.9611 0.071929 11.2969 0.0577202C10.4417 0.0204221 10.1708 0.00976562 8.00222 0.00976562C5.8336 0.00976562 5.55564 0.00976554 4.70756 0.0577202C4.04507 0.071041 3.3888 0.196256 2.76805 0.430701C1.69351 0.845421 0.845426 1.6944 0.429819 2.76805C0.196262 3.38968 0.0710471 4.04506 0.0577264 4.70933C0.0195402 5.56363 0.00799561 5.83448 0.00799561 8.00399C0.00799561 10.1726 0.0079956 10.4488 0.0577264 11.2987C0.0710471 11.9629 0.196262 12.6183 0.429819 13.2408C0.846315 14.3136 1.6944 15.1626 2.76894 15.5782C3.38703 15.8197 4.04329 15.9565 4.70933 15.9778C5.56452 16.0151 5.83538 16.0266 8.004 16.0266C10.1726 16.0266 10.4506 16.0266 11.2987 15.9778C11.962 15.9645 12.6183 15.8384 13.2399 15.6057C14.3136 15.1892 15.1617 14.3411 15.5782 13.2675C15.8117 12.6458 15.9369 11.9904 15.9503 11.3262C15.9885 10.4719 16 10.201 16 8.03152C16 5.86201 16 5.58672 15.9503 4.73686C15.9387 4.06371 15.8144 3.39679 15.5764 2.76805ZM14.4948 11.2329C14.4885 11.7445 14.3962 12.2515 14.2186 12.732C13.9477 13.4309 13.3962 13.9832 12.6982 14.2514C12.2231 14.4281 11.7223 14.5205 11.2152 14.5276C10.3715 14.5667 10.1335 14.5764 7.97025 14.5764C5.80519 14.5764 5.58406 14.5764 4.72443 14.5276C4.21913 14.5214 3.71649 14.4281 3.24227 14.2514C2.5416 13.9841 1.98657 13.4318 1.71572 12.732C1.54166 12.2577 1.44752 11.756 1.43953 11.2498C1.40135 10.4062 1.39247 10.1682 1.39247 8.00488C1.39247 5.8407 1.39247 5.61958 1.43953 4.75906C1.44575 4.24754 1.53811 3.74135 1.71572 3.26092C1.98657 2.56024 2.5416 2.00877 3.24227 1.74057C3.71649 1.56474 4.21913 1.4715 4.72443 1.46439C5.56896 1.42621 5.80607 1.41555 7.97025 1.41555C10.1344 1.41555 10.3564 1.41555 11.2152 1.46439C11.7223 1.47061 12.2231 1.56385 12.6982 1.74057C13.3962 2.00965 13.9477 2.56202 14.2186 3.26092C14.3926 3.73513 14.4868 4.23688 14.4948 4.74307C14.5329 5.58761 14.5427 5.82472 14.5427 7.98889C14.5427 10.1522 14.5427 10.3849 14.5045 11.2338H14.4948V11.2329Z" fill="white"/>
<path d="M7.99776 3.89258C5.72968 3.89258 3.8923 5.73084 3.8923 7.99803C3.8923 10.2661 5.72968 12.1044 7.99776 12.1044C10.2641 12.1044 12.1032 10.2661 12.1032 7.99803C12.1032 5.73084 10.2641 3.89258 7.99776 3.89258ZM7.99776 10.6657C6.52448 10.6657 5.33006 9.47131 5.33006 7.99892C5.33006 6.52565 6.52448 5.33211 7.99776 5.33211C9.47103 5.33211 10.6637 6.52565 10.6637 7.99892C10.6637 9.47131 9.47103 10.6657 7.99776 10.6657Z" fill="white"/>
<path d="M12.2666 4.69881C12.7954 4.69881 13.224 4.27021 13.224 3.7415C13.224 3.21279 12.7954 2.78418 12.2666 2.78418C11.7379 2.78418 11.3093 3.21279 11.3093 3.7415C11.3093 4.27021 11.7379 4.69881 12.2666 4.69881Z" fill="white"/>
</svg>
