<svg width="25" height="29" viewBox="0 0 25 29" fill="none" xmlns="http://www.w3.org/2000/svg">
<path d="M0 14.5583C0 14.3034 0.206638 14.0968 0.461538 14.0968H19.3846C19.6395 14.0968 19.8462 14.3034 19.8462 14.5583V19.3176C19.8462 24.4157 15.7134 28.5484 10.6154 28.5484H9.23077C4.13276 28.5484 0 24.4157 0 19.3176V14.5583Z" fill="#DE8F3B"/>
<path d="M3.47591 11.8387C3.47591 11.8387 2.92436 9.23999 3.47591 7.72748C5.00604 3.53142 12.1192 8.52094 14.3077 4.6129C15.5269 2.43582 13.7658 1 13.7658 1" stroke="#CF7E27" stroke-width="1.38462" stroke-linecap="round"/>
<path d="M10.2837 11.8387C10.2837 11.8387 9.99156 10.4311 10.2837 9.61178C11.094 7.33891 15.5672 10.7754 16.7263 8.65859C17.372 7.47934 16.9282 5.96773 16.9282 5.96773" stroke="#CF7E27" stroke-width="1.38462" stroke-linecap="round"/>
<path d="M19.1538 17.0323H22.1241C23.1601 17.0323 24 17.8722 24 18.9082V18.9082C24 22.3617 21.2004 25.1613 17.7469 25.1613H16.1538" stroke="#DE8F3B" stroke-width="1.38462" stroke-linecap="round"/>
<line x1="0.692308" y1="28.3077" x2="19.1538" y2="28.3077" stroke="#DE8F3B" stroke-width="1.38462" stroke-linecap="round"/>
</svg>
