<svg width="32" height="32" viewBox="0 0 32 32" fill="none" xmlns="http://www.w3.org/2000/svg">
<path d="M3.32292 4.84595H10.6729V27.8733H7.32292C5.11378 27.8733 3.32292 26.0824 3.32292 23.8733V4.84595Z" fill="#CF7E27"/>
<path d="M7.32292 27.8733C5.11378 27.8733 3.32292 26.0825 3.32292 23.8733L3.32292 20.5242L29.2899 20.5242L29.2899 23.9538C29.2899 26.1185 27.5351 27.8733 25.3704 27.8733L7.32292 27.8733Z" fill="#DE8F3B"/>
<path d="M15.0816 13.4011C15.0816 13.2762 15.1828 13.175 15.3077 13.175H24.5789C24.7038 13.175 24.8051 13.2762 24.8051 13.4011V15.7329C24.8051 18.2306 22.7803 20.2555 20.2825 20.2555H19.6041C17.1064 20.2555 15.0816 18.2306 15.0816 15.7329V13.4011Z" fill="#DE8F3B"/>
<path d="M24.4659 14.6132H25.9211C26.4287 14.6132 26.8402 15.0247 26.8402 15.5323V15.5323C26.8402 17.2243 25.4686 18.596 23.7765 18.596H22.996" stroke="#DE8F3B" stroke-width="0.678384" stroke-linecap="round"/>
<line x1="15.4208" y1="20.1375" x2="24.4659" y2="20.1375" stroke="#DE8F3B" stroke-width="0.678384" stroke-linecap="round"/>
<path d="M21.1691 10.2108C21.1691 10.752 20.7304 11.1907 20.1893 11.1907C19.6481 11.1907 19.2094 10.752 19.2094 10.2108C19.2094 9.66964 20.1893 8.25104 20.1893 8.25104C20.1893 8.25104 21.1691 9.66964 21.1691 10.2108Z" fill="#DE8F3B"/>
<path d="M27.8201 5.58084H1.8531" stroke="#DE8F3B" stroke-width="1.46983" stroke-linecap="round"/>
<path d="M17.0414 6.37297C17.0414 6.3414 17.067 6.31581 17.0985 6.31581H23.28C23.3116 6.31581 23.3371 6.3414 23.3371 6.37297C23.3371 7.00434 22.8253 7.51617 22.1939 7.51617H18.1846C17.5532 7.51617 17.0414 7.00434 17.0414 6.37297Z" fill="#DE8F3B"/>
</svg>
