<svg width="32" height="35" viewBox="0 0 32 35" fill="none" xmlns="http://www.w3.org/2000/svg">
<path d="M17.394 28.314L9.36644 23.6793C8.40986 23.127 8.08211 21.9039 8.63439 20.9473L15.383 9.25833C15.6367 8.81882 16.0481 8.49221 16.5337 8.34469L23.0237 6.37303C24.1305 6.0368 25.2908 6.70674 25.553 7.83332L27.0905 14.4397C27.2056 14.934 27.1284 15.4535 26.8747 15.893L20.126 27.582C19.5738 28.5386 18.3506 28.8663 17.394 28.314Z" fill="#CF7E27"/>
<path d="M15.5768 28.5924L7.54926 23.9577C6.59267 23.4054 6.26492 22.1822 6.81721 21.2257L13.5658 9.53671C13.8196 9.0972 14.2309 8.77059 14.7165 8.62307L21.2065 6.65141C22.3133 6.31519 23.4736 6.98512 23.7358 8.11171L25.2734 14.7181C25.3884 15.2124 25.3112 15.7319 25.0575 16.1714L18.3089 27.8604C17.7566 28.817 16.5334 29.1447 15.5768 28.5924Z" fill="white"/>
<path fill-rule="evenodd" clip-rule="evenodd" d="M4.73208 24.236L12.7596 28.8707C13.7162 29.423 14.9394 29.0953 15.4917 28.1387L22.2403 16.4498C22.494 16.0103 22.5712 15.4907 22.4562 14.9964L20.9187 8.39004C20.6565 7.26345 19.4961 6.59352 18.3894 6.92974L11.8993 8.9014C11.4137 9.04892 11.0024 9.37553 10.7486 9.81504L4.00003 21.504C3.44774 22.4606 3.77549 23.6838 4.73208 24.236ZM15.8719 13.8522C16.558 14.2483 17.4574 13.9751 17.8807 13.2419C18.304 12.5087 18.0909 11.5932 17.4048 11.1971C16.7186 10.801 15.8193 11.0742 15.396 11.8074C14.9727 12.5405 15.1857 13.456 15.8719 13.8522Z" fill="#DE8F3B"/>
<path d="M22.4562 14.9964L22.2713 15.0394L22.2713 15.0394L22.4562 14.9964ZM20.9187 8.39004L21.1035 8.34702L21.1035 8.34702L20.9187 8.39004ZM18.3894 6.92974L18.3342 6.74815L18.3894 6.92974ZM11.8993 8.9014L11.8441 8.71981L11.8441 8.71981L11.8993 8.9014ZM10.7486 9.81504L10.5843 9.72015L10.5843 9.72015L10.7486 9.81504ZM4.00003 21.504L4.16438 21.5989L4.00003 21.504ZM12.8545 28.7064L4.82697 24.0717L4.63718 24.4004L12.6647 29.0351L12.8545 28.7064ZM15.3273 28.0438C14.8274 28.9096 13.7203 29.2063 12.8545 28.7064L12.6647 29.0351C13.7121 29.6398 15.0513 29.2809 15.656 28.2336L15.3273 28.0438ZM22.0759 16.3549L15.3273 28.0438L15.656 28.2336L22.4046 16.5447L22.0759 16.3549ZM22.2713 15.0394C22.3755 15.4868 22.3056 15.9571 22.0759 16.3549L22.4046 16.5447C22.6825 16.0634 22.767 15.4946 22.641 14.9534L22.2713 15.0394ZM20.7338 8.43306L22.2713 15.0394L22.641 14.9534L21.1035 8.34702L20.7338 8.43306ZM18.4445 7.11133C19.4463 6.80701 20.4965 7.41338 20.7338 8.43306L21.1035 8.34702C20.8164 7.11353 19.546 6.38002 18.3342 6.74815L18.4445 7.11133ZM11.9545 9.08299L18.4445 7.11133L18.3342 6.74815L11.8441 8.71981L11.9545 9.08299ZM10.913 9.90994C11.1427 9.51213 11.515 9.21651 11.9545 9.08299L11.8441 8.71981C11.3125 8.88133 10.8621 9.23893 10.5843 9.72015L10.913 9.90994ZM4.16438 21.5989L10.913 9.90994L10.5843 9.72015L3.83567 21.4091L4.16438 21.5989ZM4.82697 24.0717C3.96116 23.5718 3.66451 22.4647 4.16438 21.5989L3.83567 21.4091C3.23098 22.4565 3.58983 23.7957 4.63718 24.4004L4.82697 24.0717ZM17.7163 13.147C17.3394 13.7999 16.552 14.0257 15.9668 13.6878L15.777 14.0165C16.564 14.4709 17.5753 14.1503 18.045 13.3368L17.7163 13.147ZM17.3099 11.3615C17.8951 11.6994 18.0932 12.4942 17.7163 13.147L18.045 13.3368C18.5147 12.5233 18.2867 11.4871 17.4997 11.0327L17.3099 11.3615ZM15.5603 11.9023C15.9373 11.2494 16.7246 11.0236 17.3099 11.3615L17.4997 11.0327C16.7127 10.5784 15.7013 10.899 15.2316 11.7125L15.5603 11.9023ZM15.9668 13.6878C15.3815 13.3499 15.1834 12.5551 15.5603 11.9023L15.2316 11.7125C14.7619 12.526 14.99 13.5622 15.777 14.0165L15.9668 13.6878Z" fill="#DE8F3B"/>
</svg>
