<svg width="32" height="32" viewBox="0 0 32 32" fill="none" xmlns="http://www.w3.org/2000/svg">
<path fill-rule="evenodd" clip-rule="evenodd" d="M18.3803 22.1341C22.5724 22.9838 26.1635 18.7586 27.0996 14.1402C27.8848 10.2664 26.8417 5.92002 24.0111 4.11787C24.0919 4.44428 24.1756 4.83172 24.244 5.25874C24.4446 6.51047 24.5284 8.18289 23.9536 9.6559C23.3608 11.1749 22.1151 12.0649 20.9861 12.8318L20.7789 12.9722C19.6867 13.7118 18.721 14.3657 18.1255 15.3831C17.246 16.8857 17.2937 18.6043 17.5978 20.0072C17.7484 20.7021 17.9579 21.2995 18.1298 21.7228C18.1939 21.8807 18.2525 22.0135 18.3003 22.1173C18.3269 22.1231 18.3535 22.1287 18.3803 22.1341ZM16.7574 21.5238C13.7708 19.8053 12.6578 15.3428 13.4618 11.376C14.3979 6.75765 17.989 2.53243 22.1811 3.38214C22.3078 3.40781 22.4321 3.43753 22.5541 3.47117L22.5555 3.47491L22.5644 3.50018C22.5725 3.5234 22.5847 3.55915 22.6002 3.60636C22.6312 3.70083 22.6752 3.8409 22.7252 4.01805C22.8255 4.37305 22.9491 4.8733 23.0418 5.45141C23.23 6.6257 23.2769 8.04071 22.8193 9.21328C22.3797 10.3399 21.4494 11.0451 20.3019 11.8246C20.2195 11.8806 20.1359 11.937 20.0513 11.994L20.051 11.9942C19.0062 12.6988 17.8161 13.5014 17.0747 14.768C15.9761 16.645 16.0729 18.7197 16.4078 20.2651C16.5088 20.7311 16.633 21.1564 16.7574 21.5238Z" fill="#CF7E27"/>
<path d="M22.3812 26.0126C23.9928 24.2127 24.2474 21.8626 23.6706 19.6165C23.0954 17.3768 21.684 15.1735 19.8446 13.5265C18.0053 11.8795 15.6601 10.719 13.3707 10.3937C11.0748 10.0675 8.76697 10.579 7.15532 12.3789C5.54368 14.1788 5.28909 16.5289 5.86588 18.7749C6.44107 21.0147 7.85254 23.2179 9.69188 24.8649C11.5312 26.5119 13.8764 27.6725 16.1658 27.9978C18.4617 28.324 20.7695 27.8124 22.3812 26.0126Z" fill="white" stroke="white" stroke-width="1.30454"/>
<path fill-rule="evenodd" clip-rule="evenodd" d="M21.8953 25.5775C24.7486 22.3909 22.9201 17.156 19.4095 14.0125C16.4649 11.3758 12.1878 10.0772 9.20147 11.6076C9.52397 11.7029 9.90049 11.8268 10.3035 11.9837C11.4848 12.4438 12.9699 13.2174 13.9498 14.4583C14.9604 15.7379 15.098 17.2627 15.1886 18.6246L15.2049 18.8743C15.2905 20.1906 15.3661 21.3544 15.9426 22.3827C16.794 23.9015 18.3007 24.7295 19.6647 25.1768C20.3404 25.3984 20.9617 25.5198 21.4138 25.5856C21.5824 25.6101 21.7266 25.6268 21.8403 25.638C21.8587 25.618 21.877 25.5979 21.8953 25.5775ZM20.5479 26.6688C17.5548 28.376 13.1423 27.0791 10.127 24.3791C6.61645 21.2356 4.78789 16.0007 7.64126 12.8141C7.72745 12.7178 7.81597 12.6256 7.9067 12.5374L7.91061 12.5381L7.93692 12.5432C7.96103 12.548 7.99805 12.5555 8.04662 12.566C8.14378 12.5871 8.28687 12.62 8.46501 12.6664C8.82197 12.7594 9.31605 12.9058 9.86161 13.1183C10.9698 13.5499 12.2142 14.2251 12.9943 15.2129C13.7438 16.162 13.8817 17.3212 13.9737 18.7054C13.9803 18.8048 13.9867 18.9056 13.9931 19.0075C14.0724 20.2652 14.1628 21.6979 14.8805 22.9781C15.944 24.8752 17.7827 25.8411 19.2853 26.3338C19.7384 26.4823 20.168 26.5903 20.5479 26.6688Z" fill="#DE8F3B"/>
</svg>
